<svg xmlns="http://www.w3.org/2000/svg" xmlns:xlink="http://www.w3.org/1999/xlink" width="1200" height="1200"
  viewBox="0 0 1200 1200">
  <rect width="100%" height="100%" fill="#8637c8"></rect>
  <g transform="translate(600 600) scale(0.69 0.69) rotate(0) translate(-600 -600)" style="fill:#ffffff"><svg
      fill="#ffffff" xmlns="http://www.w3.org/2000/svg" viewBox="0 0 24 24" x="0px" y="0px">
      <path
        d="M100.013327,12.4656653 C100.094737,13.8840912 100.545687,15.2035019 101.271371,16.3290925 L104.510363,16.8842434 L105.97487,19.7414531 C106.621668,19.9101841 107.300345,20 108,20 C108.701855,20 109.3826,19.9096182 110.031232,19.7398588 L111.563786,16.8239606 L114.738825,16.3132362 C115.459967,15.1888881 115.907421,13.8722129 115.987152,12.4572455 L113.686082,10.0971282 L114.181276,6.92107159 C113.316549,5.86988318 112.188904,5.04313613 110.898909,4.54139936 L107.944309,6 L105.080434,4.54946693 C103.79002,5.05551867 102.663038,5.88713101 101.800564,6.943229 L102.273403,10.1946678 L100.013327,12.4656653 L100.013327,12.4656653 Z M108,22 C102.477153,22 98,17.5228475 98,12 C98,6.4771525 102.477153,2 108,2 C113.522847,2 118,6.4771525 118,12 C118,17.5228475 113.522847,22 108,22 Z M104.200012,10.9714225 L107.98752,8 L111.700012,10.9714225 L109.950012,15.3999939 L105.950012,15.3999939 L104.200012,10.9714225 Z"
        transform="translate(-96)"></path>
    </svg></g>
</svg>