<?xml version="1.0" standalone="no"?>
<!DOCTYPE svg PUBLIC "-//W3C//DTD SVG 20010904//EN"
 "http://www.w3.org/TR/2001/REC-SVG-20010904/DTD/svg10.dtd">
<svg version="1.0" xmlns="http://www.w3.org/2000/svg"
 width="700.000000pt" height="700.000000pt" viewBox="0 0 700.000000 700.000000"
 preserveAspectRatio="xMidYMid meet">
<metadata>
Created by potrace 1.14, written by Peter Selinger 2001-2017
</metadata>
<g transform="translate(0.000000,700.000000) scale(0.100000,-0.100000)"
fill="#000000" stroke="none">
<path d="M0 3500 l0 -3500 3500 0 3500 0 0 3500 0 3500 -3500 0 -3500 0 0
-3500z m3762 1994 c668 -86 1244 -500 1543 -1109 103 -209 160 -398 190 -628
143 -1096 -638 -2110 -1733 -2251 -859 -111 -1685 333 -2067 1109 -139 284
-205 567 -205 885 0 772 432 1464 1125 1805 204 100 396 159 616 189 143 19
381 19 531 0z"/>
<path d="M2805 4951 c-186 -89 -420 -268 -523 -399 l-29 -37 47 -325 48 -325
-228 -230 -229 -230 9 -79 c23 -200 72 -364 160 -541 33 -66 66 -128 74 -138
10 -13 73 -28 272 -62 143 -25 289 -50 325 -56 l66 -12 148 -288 148 -288 46
-10 c147 -31 189 -35 361 -35 172 0 214 4 362 35 l47 10 151 290 c84 159 156
291 160 294 5 3 150 28 322 56 236 38 315 55 325 67 30 40 135 264 162 349 34
103 68 269 73 355 l3 56 -227 235 c-148 153 -228 242 -228 256 0 11 21 154 46
317 40 254 44 300 33 320 -19 37 -184 193 -270 256 -89 66 -225 146 -313 183
l-62 26 -296 -147 -296 -147 -290 146 c-160 81 -292 147 -294 147 -1 0 -48
-22 -103 -49z m1070 -946 c200 -160 364 -294 364 -300 1 -5 -77 -206 -171
-447 l-173 -438 -405 0 -405 0 -173 440 c-96 241 -171 444 -167 449 3 6 65 57
138 114 73 57 239 188 371 291 131 103 243 185 248 184 5 -2 173 -134 373
-293z"/>
</g>
</svg>
